<svg xmlns="http://www.w3.org/2000/svg" viewBox="0 0 42.99 46.57"><defs><style>.cls-1{fill:#fff}</style></defs><g id="Слой_2" data-name="Слой 2"><g id="_2_screen" data-name="2 screen"><path class="cls-1" d="M37.8 21.55A1.59 1.59 0 0136.22 20v-2.15a14.69 14.69 0 00-29.37 0V20a1.59 1.59 0 11-3.17 0v-2.15a17.86 17.86 0 0135.71 0V20a1.59 1.59 0 01-1.59 1.55z"/><path class="cls-1" d="M37.8 36.12h-.07a5.2 5.2 0 01-5.19-5.19v-7.36a5.23 5.23 0 0110.45 0v7.36a5.19 5.19 0 01-5.19 5.19zm0-14.57a2 2 0 00-2.09 2v7.36a2 2 0 002 2h.07a2 2 0 002-2v-7.34a2 2 0 00-1.98-2.02zM5.27 36.12h-.08A5.2 5.2 0 010 30.93v-7.36a5.23 5.23 0 0110.46 0v7.36a5.2 5.2 0 01-5.19 5.19zm0-14.57a2 2 0 00-2.1 2v7.36a2 2 0 002 2h.08a2 2 0 002-2v-7.34a2 2 0 00-1.98-2.02z"/><path class="cls-1" d="M27.5 45.47a1.59 1.59 0 010-3.17 8.71 8.71 0 006.41-2.22 8.65 8.65 0 002.23-5.53A1.6 1.6 0 0137.71 33a1.55 1.55 0 011.6 1.56 11.75 11.75 0 01-3.12 7.77c-2.09 2.07-5.01 3.14-8.69 3.14z"/><path class="cls-1" d="M30.19 43.89a2.69 2.69 0 11-2.69-2.69 2.68 2.68 0 012.69 2.69z"/></g></g></svg>