<svg xmlns="http://www.w3.org/2000/svg" viewBox="0 0 121.68 121.68"><g data-name="Слой 2"><path d="M119.76 52.94L110 50.68l-3.48-.39a46.58 46.58 0 00-5.9-14.29l2.19-2.74 5.28-8.47a2.48 2.48 0 00-.35-3.07L100 13.94a2.48 2.48 0 00-3.07-.35l-8.47 5.29-2.76 2.18a46.73 46.73 0 00-14.31-5.93L71 11.65l-2.25-9.73A2.49 2.49 0 0066.33 0h-11a2.48 2.48 0 00-2.42 1.92l-2.26 9.73-.39 3.48A46.83 46.83 0 0036 21.06l-2.74-2.18-8.47-5.29a2.48 2.48 0 00-3.07.35l-7.78 7.76a2.48 2.48 0 00-.35 3.07l5.29 8.47L21.06 36a46.58 46.58 0 00-5.93 14.31l-3.48.39-9.73 2.24A2.48 2.48 0 000 55.36v11a2.49 2.49 0 001.92 2.42L11.65 71l3.48.4a46.53 46.53 0 005.93 14.3l-2.18 2.74-5.29 8.47a2.48 2.48 0 00.35 3.07l7.76 7.76a2.48 2.48 0 003.07.35l8.47-5.28 2.76-2.19a46.58 46.58 0 0014.31 5.93l.39 3.48 2.26 9.73a2.48 2.48 0 002.42 1.92h11a2.49 2.49 0 002.42-1.92L71 110l.39-3.48a46.48 46.48 0 0014.31-5.93l2.74 2.19 8.47 5.28a2.48 2.48 0 003.07-.35l7.76-7.76a2.48 2.48 0 00.35-3.07l-5.28-8.47-2.19-2.74a46.53 46.53 0 005.93-14.3L110 71l9.73-2.25a2.49 2.49 0 001.92-2.42v-11a2.48 2.48 0 00-1.89-2.39zm-58.92 36.3a28.4 28.4 0 1128.4-28.4 28.39 28.39 0 01-28.4 28.4z" fill="#a4b1cc" data-name="2 screen"/></g></svg>