<svg xmlns="http://www.w3.org/2000/svg" viewBox="0 0 281.9 281.9"><defs><linearGradient id="a" x1="250.6" y1="94.78" x2="22.13" y2="190.98" gradientUnits="userSpaceOnUse"><stop offset="0" stop-color="#4eb1af"/><stop offset=".13" stop-color="#4eb1af" stop-opacity=".93"/><stop offset=".37" stop-color="#4eb1af" stop-opacity=".74"/><stop offset=".69" stop-color="#4eb1af" stop-opacity=".44"/><stop offset="1" stop-color="#4eb1af" stop-opacity=".11"/></linearGradient><linearGradient id="b" x1="4406.53" y1="-661.27" x2="4688.43" y2="-661.27" gradientTransform="rotate(90 1943.105 -2463.425)" gradientUnits="userSpaceOnUse"><stop offset=".02" stop-color="#56b6cc"/><stop offset=".26" stop-color="#5292be"/><stop offset=".51" stop-color="#4e74b2"/><stop offset=".65" stop-color="#4d68ae"/><stop offset=".83" stop-color="#518ebc"/><stop offset="1" stop-color="#56b6cc"/></linearGradient></defs><g data-name="Слой 2"><g data-name="Слой 1"><path d="M16.48 107.52a129.07 129.07 0 11-4.38 34 129.11 129.11 0 014.38-34zm220.89 59.35A99.85 99.85 0 0044.52 115a100.7 100.7 0 00-3.4 26.38 99.84 99.84 0 00196.25 25.46z" style="mix-blend-mode:screen" fill="#53ae7c" opacity=".15"/><path d="M16.49 107.39A129 129 0 01202 27.46L188.24 53a99.84 99.84 0 1052.54 87.5l29-.15a128.85 128.85 0 01-219.53 92.13 128 128 0 01-38.15-90.94 129.51 129.51 0 014.39-34.15z" fill="url(#a)"/><path d="M0 141C0 63.23 63.23 0 141 0s141 63.23 141 141-63.23 141-140.95 141S0 218.67 0 141zm279.46 0C279.46 64.57 217.33 2.43 141 2.43S2.43 64.57 2.43 141 64.57 279.47 141 279.47 279.46 217.33 279.46 141z" fill="url(#b)"/></g></g></svg>